<?xml version="1.0" encoding="utf-8"?>
<!-- Generator: Adobe Illustrator 25.0.0, SVG Export Plug-In . SVG Version: 6.00 Build 0)  -->
<svg version="1.1" id="Слой_1" xmlns="http://www.w3.org/2000/svg" xmlns:xlink="http://www.w3.org/1999/xlink" x="0px" y="0px"
	 viewBox="0 0 24 25" style="enable-background:new 0 0 24 25;" xml:space="preserve">
<style type="text/css">
	.st0{opacity:0.54;fill:none;stroke:#000000;stroke-width:2;enable-background:new    ;}
</style>
<path class="st0" d="M17.5,1c-2.4,0-4.6,1.8-5.5,4.1C11.1,2.8,8.9,1,6.5,1C3.4,1,1,3.6,1,7.2C1,12,5.3,16.1,12,23
	c6.7-6.9,11-11,11-15.8C23,3.6,20.6,1,17.5,1z"/>
<path class="st0" d="M16.8,2.6c-2.1,0-4.1,1.4-4.8,3.3C11.2,4,9.3,2.6,7.1,2.6c-2.7,0-4.8,2.1-4.8,5c0,3.9,3.7,7.2,9.6,12.7
	c5.9-5.5,9.6-8.8,9.6-12.7C21.6,4.7,19.4,2.6,16.8,2.6z"/>
<path class="st0" d="M15.9,4.3c-1.8,0-3.5,1.1-4.1,2.5c-0.6-1.4-2.3-2.5-4.1-2.5c-2.3,0-4.1,1.6-4.1,3.7c0,2.9,3.2,5.4,8.2,9.6
	c5-4.2,8.2-6.7,8.2-9.6C20,5.9,18.2,4.3,15.9,4.3z"/>
<path class="st0" d="M15.1,5.1C13.7,5.1,12.5,6,12,7C11.5,6,10.2,5.1,8.8,5.1C7,5.1,5.6,6.3,5.6,8c0,2.2,2.5,4.1,6.4,7.3
	c3.9-3.2,6.4-5.1,6.4-7.3C18.3,6.3,16.9,5.1,15.1,5.1z"/>
<path class="st0" d="M14.4,6.7c-1.1,0-2.1,0.6-2.5,1.3c-0.4-0.7-1.4-1.3-2.5-1.3C8,6.7,6.9,7.5,6.9,8.6c0,1.5,1.9,2.8,5,4.9
	c3.1-2.1,5-3.4,5-4.9C16.9,7.5,15.8,6.7,14.4,6.7z"/>
</svg>
